<svg width="40" height="50" viewBox="0 0 40 50" fill="none" xmlns="http://www.w3.org/2000/svg">
<path d="M29.75 3H28V12H29.75C30.185 12 30.6048 11.9308 31 11.8022V3.19779C30.6048 3.06921 30.185 3 29.75 3Z" fill="#646D4A"/>
<path d="M27.2121 3H22.9697V12H27.2121V3Z" fill="#646D4A"/>
<path d="M21.2727 3H19.5758V12H21.2727V3Z" fill="#646D4A"/>
<path d="M17.8788 3H17.0303V12H17.8788V3Z" fill="#646D4A"/>
<path d="M0 42H6V50H0V42Z" fill="#A58A64"/>
<path d="M34 42H40V50H34V42Z" fill="#A58A64"/>
<path d="M13 29H10.5C10.0151 29 9.50089 29.1184 9 29.3332V37.7439C9.46917 37.9097 9.97405 38 10.5 38L13 38V29Z" fill="#646D4A"/>
<path d="M26 29H13V38H26V29Z" fill="white"/>
<path d="M9 29.3332C7.43478 30.0045 6 31.6172 6 33.5C6 35.4593 7.25221 37.1262 9 37.7439V29.3332Z" fill="white"/>
<path d="M29.5 29H29V38L29.5 38C31.9853 38 34 35.9853 34 33.5C34 31.0147 31.9853 29 29.5 29Z" fill="white"/>
<path d="M29 29H26V38L28.9755 38H29V29Z" fill="#646D4A"/>
<path fill-rule="evenodd" clip-rule="evenodd" d="M17.0303 3V12H17.8788V3H17.0303ZM19.5758 3V12H21.2727V3H19.5758ZM22.9697 3V12H27.2121V3H22.9697ZM28 3V12H29.75C30.185 12 30.6048 11.9308 31 11.8022V3.19779C30.6048 3.06921 30.185 3 29.75 3H28Z" fill="#646D4A"/>
<path fill-rule="evenodd" clip-rule="evenodd" d="M32 0H8C3.58172 0 0 3.58172 0 8V42H6H34H40V8C40 3.58172 36.4183 0 32 0ZM10.25 3H17.0303H17.8788H19.5758H21.2727H22.9697H27.2121H28H29.75C30.185 3 30.6048 3.06921 31 3.19779C32.7372 3.76297 34 5.47533 34 7.5C34 9.52467 32.7372 11.237 31 11.8022C30.6048 11.9308 30.185 12 29.75 12H28H27.2121H22.9697H21.2727H19.5758H17.8788H17.0303H10.25C7.90279 12 6 9.98528 6 7.5C6 5.01472 7.90279 3 10.25 3ZM29.5 16H10.5C8.01472 16 6 18.0147 6 20.5C6 22.9853 8.01472 25 10.5 25H29.5C31.9853 25 34 22.9853 34 20.5C34 18.0147 31.9853 16 29.5 16ZM10.5 29H13H26H29H29.5C31.9853 29 34 31.0147 34 33.5C34 35.9853 31.9853 38 29.5 38L29 38H28.9755L26 38H13L10.5 38C9.97405 38 9.46917 37.9097 9 37.7439C7.25221 37.1262 6 35.4593 6 33.5C6 31.6172 7.43478 30.0045 9 29.3332C9.50089 29.1184 10.0151 29 10.5 29Z" fill="#A58A64"/>
<path d="M10.5 16H29.5C31.9853 16 34 18.0147 34 20.5C34 22.9853 31.9853 25 29.5 25H10.5C8.01472 25 6 22.9853 6 20.5C6 18.0147 8.01472 16 10.5 16Z" fill="white"/>
<path d="M17.0303 3H10.25C7.90279 3 6 5.01472 6 7.5C6 9.98528 7.90279 12 10.25 12H17.0303V3Z" fill="white"/>
<path d="M19.5758 3H17.8788V12H19.5758V3Z" fill="white"/>
<path d="M22.9697 3H21.2727V12H22.9697V3Z" fill="white"/>
<path d="M28 3H27.2121V12H28V3Z" fill="white"/>
<path d="M31 3.19779V11.8022C32.7372 11.237 34 9.52467 34 7.5C34 5.47533 32.7372 3.76297 31 3.19779Z" fill="white"/>
</svg>
