<svg width="32" height="32" viewBox="0 0 32 32" fill="none" xmlns="http://www.w3.org/2000/svg">
<path d="M15.7504 29.9999H25.2504M19.7087 5.45825L26.0421 11.7916M9.6894 28.1442L28.1447 9.68891C29.0092 8.82441 29.4399 8.39375 29.6711 7.92825C29.8876 7.49119 30.0003 7.01002 30.0003 6.52225C30.0003 6.03448 29.8876 5.5533 29.6711 5.11625C29.4399 4.64916 29.0092 4.2185 28.1447 3.35558C27.2818 2.49108 26.8511 2.06041 26.3841 1.82925C25.947 1.61268 25.4658 1.5 24.9781 1.5C24.4903 1.5 24.0091 1.61268 23.5721 1.82925C23.1066 2.06041 22.6759 2.49108 21.8114 3.35558L3.35606 21.8109C2.43931 22.7261 1.98173 23.1837 1.74106 23.7663C1.5004 24.3474 1.5004 24.995 1.5004 26.2902V29.9999H5.21015C6.50531 29.9999 7.15131 29.9999 7.73398 29.7592C8.31506 29.5186 8.77265 29.0594 9.6894 28.1442Z" stroke="black" stroke-width="3" stroke-linecap="round" stroke-linejoin="round"/>
</svg>
